HIERARCHY
ROOT Hips
{
	OFFSET 0.000000 0.000000 0.000000
	CHANNELS 6 Xposition Yposition Zposition Xrotation Yrotation Zrotation
	JOINT LeftUpLeg_virtual
	{
		OFFSET 0.000000 0.000000 0.000000
		CHANNELS 3 Xrotation Yrotation Zrotation
		JOINT LeftUpLeg
		{
			OFFSET 15.427100 -6.655098 0.678600
			CHANNELS 3 Xrotation Yrotation Zrotation
			JOINT LeftLeg
			{
				OFFSET 4.081073 -39.591068 13.024000
				CHANNELS 3 Xrotation Yrotation Zrotation
				JOINT LeftFoot
				{
					OFFSET -4.081074 -37.707932 -15.979700
					CHANNELS 3 Xrotation Yrotation Zrotation
					JOINT LeftToeBase
					{
						OFFSET 5.346399 -15.068900 20.645000
						CHANNELS 3 Xrotation Yrotation Zrotation
						JOINT LeftToe_End
						{
							OFFSET 2.754700 0.931300 11.300900
							CHANNELS 3 Xrotation Yrotation Zrotation
							End Site
							{
								OFFSET 0 0 0
							}
						}
					}
				}
			}
		}
	}
	JOINT RightUpLeg_virtual
	{
		OFFSET 0.000000 0.000000 0.000000
		CHANNELS 3 Xrotation Yrotation Zrotation
		JOINT RightUpLeg
		{
			OFFSET -15.569500 -6.655098 0.678600
			CHANNELS 3 Xrotation Yrotation Zrotation
			JOINT RightLeg
			{
				OFFSET -4.081825 -39.591045 13.023800
				CHANNELS 3 Xrotation Yrotation Zrotation
				JOINT RightFoot
				{
					OFFSET 4.081824 -37.707954 -15.979600
					CHANNELS 3 Xrotation Yrotation Zrotation
					JOINT RightToeBase
					{
						OFFSET -5.346400 -15.068900 20.645000
						CHANNELS 3 Xrotation Yrotation Zrotation
						JOINT RightToe_End
						{
							OFFSET -2.754700 0.931300 11.300900
							CHANNELS 3 Xrotation Yrotation Zrotation
							End Site
							{
								OFFSET 0 0 0
							}
						}
					}
				}
			}
		}
	}
	JOINT Spine_virtual
	{
		OFFSET 0.000000 0.000000 0.000000
		CHANNELS 3 Xrotation Yrotation Zrotation
		JOINT Spine
		{
			OFFSET -0.279200 12.230698 -2.892100
			CHANNELS 3 Xrotation Yrotation Zrotation
			JOINT Spine1
			{
				OFFSET -0.232667 10.192268 -1.242267
				CHANNELS 3 Xrotation Yrotation Zrotation
				JOINT Spine1_split
				{
					OFFSET -0.232667 10.192268 -1.242267
					CHANNELS 3 Xrotation Yrotation Zrotation
					JOINT Spine2
					{
						OFFSET -0.232667 10.192268 -1.242267
						CHANNELS 3 Xrotation Yrotation Zrotation
						JOINT Neck_virtual
						{
							OFFSET 0.000000 0.000000 0.000000
							CHANNELS 3 Xrotation Yrotation Zrotation
							JOINT Neck
							{
								OFFSET -0.418800 17.814194 8.416900
								CHANNELS 3 Xrotation Yrotation Zrotation
								JOINT Head
								{
									OFFSET 0.000000 7.031097 3.806800
									CHANNELS 3 Xrotation Yrotation Zrotation
									JOINT HeadTop_End
									{
										OFFSET 0.000000 24.646606 12.978600
										CHANNELS 3 Xrotation Yrotation Zrotation
										End Site
										{
											OFFSET 0 0 0
										}
									}
								}
							}
						}
						JOINT LeftShoulder_virtual
						{
							OFFSET 0.000000 0.000000 0.000000
							CHANNELS 3 Xrotation Yrotation Zrotation
							JOINT LeftShoulder
							{
								OFFSET 8.476499 7.247704 -3.868750
								CHANNELS 3 Xrotation Yrotation Zrotation
								JOINT LeftShoulder_split
								{
									OFFSET 8.476499 7.247704 -3.868750
									CHANNELS 3 Xrotation Yrotation Zrotation
									JOINT LeftArm
									{
										OFFSET 9.308998 -2.777710 0.208600
										CHANNELS 3 Xrotation Yrotation Zrotation
										JOINT LeftForeArm
										{
											OFFSET 29.972298 0.000000 0.000000
											CHANNELS 3 Xrotation Yrotation Zrotation
											JOINT LeftHand
											{
												OFFSET 26.026505 0.000000 0.000000
												CHANNELS 3 Xrotation Yrotation Zrotation
												End Site
												{
													OFFSET 0 0 0
												}
											}
										}
									}
								}
							}
						}
						JOINT RightShoulder_virtual
						{
							OFFSET 0.000000 0.000000 0.000000
							CHANNELS 3 Xrotation Yrotation Zrotation
							JOINT RightShoulder
							{
								OFFSET -7.570500 7.247704 -3.868750
								CHANNELS 3 Xrotation Yrotation Zrotation
								JOINT RightShoulder_split
								{
									OFFSET -7.570500 7.247704 -3.868750
									CHANNELS 3 Xrotation Yrotation Zrotation
									JOINT RightArm
									{
										OFFSET -9.308998 -2.777710 0.208500
										CHANNELS 3 Xrotation Yrotation Zrotation
										JOINT RightForeArm
										{
											OFFSET -29.972300 0.000000 0.000000
											CHANNELS 3 Xrotation Yrotation Zrotation
											JOINT RightHand
											{
												OFFSET -26.026505 0.000000 0.000000
												CHANNELS 3 Xrotation Yrotation Zrotation
												End Site
												{
													OFFSET 0 0 0
												}
											}
										}
									}
								}
							}
						}
					}
				}
			}
		}
	}
}
MOTION
Frames: 10
Frame Time: 0.03333333
4.364722 78.056091 -9.978394 0.000000 0.000000 0.000000 -9.764180 13.911845 1.721961 -19.067351 1.186430 15.208292 47.452217 0.076468 0.388462 -18.429833 3.571246 -17.112995 0.316067 -2.965034 2.456582 0.000000 0.000000 0.000000 -8.952737 11.981908 1.458310 -12.043455 -11.976195 -12.871749 49.412047 9.604108 -2.612686 -27.120793 -23.748933 19.039345 3.684504 7.658832 -10.946953 0.000000 0.000000 0.000000 -6.984426 21.403998 0.566862 16.110753 -8.391687 1.396638 4.646083 -3.226861 0.293373 -0.004099 0.280751 0.092499 0.000000 0.000000 0.000000 4.816064 -0.863034 0.582226 -20.899107 9.850043 10.958042 -16.378143 -5.060473 13.658159 0.000000 0.000000 0.000000 4.774877 -2.338169 -0.744763 4.570588 2.546538 -8.244429 -2.066511 -3.054477 -1.327127 -18.408868 4.673542 -49.337387 112.616528 -48.590294 101.511938 0.000000 0.000000 0.000000 6.663670 -1.525919 0.302677 1.064930 0.103124 15.589574 -7.045799 -2.388963 4.148126 -9.754251 24.228983 65.080986 -164.243360 74.515424 165.569345 0.000000 0.000000 0.000000 
4.552386 78.027809 -9.951981 0.000000 0.000000 0.000000 -9.866259 14.344902 1.826040 -19.138477 1.023462 15.332506 48.260566 -0.186004 0.601437 -18.054973 3.505055 -17.533234 0.316447 -2.964092 2.498924 0.000000 0.000000 0.000000 -8.818413 12.515779 1.453476 -11.935207 -11.739315 -12.926798 49.577577 9.840902 -2.637518 -27.049806 -23.944787 19.464210 3.442207 7.691728 -10.968482 0.000000 0.000000 0.000000 -7.091699 21.918951 0.495502 15.950220 -8.384567 1.427666 4.713647 -3.251337 0.505979 0.063082 0.279178 0.103366 0.000000 0.000000 0.000000 4.908586 -0.807688 0.623422 -19.625650 10.494055 10.514125 -17.003491 -5.377523 13.956964 0.000000 0.000000 0.000000 5.007292 -2.403360 -0.381439 4.525147 2.074209 -7.946510 -1.813637 -2.182885 -1.541376 -20.126283 4.266678 -49.479970 111.091715 -50.263058 100.146870 0.000000 0.000000 0.000000 6.971875 -1.585987 0.540206 1.575655 0.118676 17.125910 -6.791938 -1.806009 6.891226 -7.638999 23.363212 62.903454 -163.150967 75.268056 165.580069 0.000000 0.000000 0.000000 
4.760661 77.981056 -9.996471 0.000000 0.000000 0.000000 -9.766065 15.478365 1.933411 -19.566429 0.192453 15.173349 49.145018 -0.294434 0.917245 -17.692603 3.409709 -17.851995 0.127125 -2.954651 2.569378 0.000000 0.000000 0.000000 -8.544929 13.616900 1.480950 -11.373777 -12.505419 -12.856261 49.104238 9.857131 -2.508692 -27.853916 -24.422202 19.066060 4.436288 7.601911 -11.248133 0.000000 0.000000 0.000000 -7.314139 23.153677 0.561234 15.761416 -8.398484 1.308713 4.788662 -3.604639 1.081078 0.103964 0.242907 0.139571 0.000000 0.000000 0.000000 4.927797 -1.041565 1.052346 -17.939318 11.059069 10.014194 -16.816827 -5.972844 13.352322 0.000000 0.000000 0.000000 5.236253 -2.716320 0.417571 4.533276 0.895372 -7.744539 -2.023894 -1.390077 -2.685085 -20.396239 1.278624 -47.985989 105.804275 -52.096373 93.835919 0.000000 0.000000 0.000000 7.277572 -2.064398 1.129043 2.201829 -0.576448 19.515111 -7.443451 -0.478471 8.401772 -4.010922 23.642954 56.876160 -161.040943 74.261286 164.384731 0.000000 0.000000 0.000000 
4.951969 77.986519 -10.142162 0.000000 0.000000 0.000000 -9.424596 17.064680 1.981310 -20.285937 -1.181423 14.693340 49.742680 -0.174640 1.282569 -17.466090 3.358407 -18.030292 0.117888 -2.908157 2.472438 0.000000 0.000000 0.000000 -8.272834 15.058928 1.554288 -10.506626 -14.163528 -12.746006 48.097560 9.755802 -2.168234 -28.955262 -25.008063 18.234273 5.996001 7.454544 -11.715996 0.000000 0.000000 0.000000 -7.489593 24.837172 0.637097 15.594644 -8.467649 1.114159 4.858992 -4.203342 1.858380 0.111166 0.136723 0.159302 0.000000 0.000000 0.000000 4.809053 -1.471592 1.776404 -16.225331 11.296899 9.647278 -15.700718 -6.934750 12.047750 0.000000 0.000000 0.000000 5.510445 -3.183797 1.476989 4.602113 -0.730076 -7.764996 -1.938885 -1.157424 -3.820850 -18.948027 -3.922416 -44.850034 97.323707 -53.266589 83.127678 0.000000 0.000000 0.000000 7.452984 -2.800386 1.909903 2.926768 -1.779232 21.759181 -8.887289 1.200521 8.115660 -0.602881 23.948615 48.612902 -157.438183 72.639970 161.060560 0.000000 0.000000 0.000000 
5.138760 78.148026 -10.282944 0.000000 0.000000 0.000000 -8.936877 18.891752 1.976991 -21.111348 -2.877650 13.929313 49.717118 0.212008 1.593835 -17.384281 3.286520 -17.961253 0.309123 -2.866648 2.164324 0.000000 0.000000 0.000000 -8.064891 16.760074 1.669038 -9.257320 -16.360613 -12.567522 46.524923 9.767360 -1.677841 -29.795027 -25.499234 17.519869 6.738034 7.380368 -12.234951 0.000000 0.000000 0.000000 -7.592193 26.816176 0.729980 15.493746 -8.681281 0.927063 4.867632 -4.898700 2.649935 0.178604 0.075796 0.064073 0.000000 0.000000 0.000000 4.641083 -1.971841 2.639967 -14.725666 10.994607 9.546169 -13.787905 -9.018258 10.297577 0.000000 0.000000 0.000000 5.712646 -3.658598 2.522751 4.656332 -2.409763 -8.170748 -1.632592 -1.451286 -4.367648 -16.029646 -10.061529 -40.429730 87.717019 -53.219529 70.407974 0.000000 0.000000 0.000000 7.434121 -3.573821 2.676380 3.674627 -3.320615 23.003686 -9.726164 2.347094 7.379176 -0.073807 23.286082 40.397810 -153.204066 70.127096 156.304030 0.000000 0.000000 0.000000 
5.372277 78.579147 -10.359116 0.000000 0.000000 0.000000 -8.410065 20.755943 1.931679 -21.952009 -4.736433 13.055262 49.028741 0.552544 1.881811 -16.930536 3.002010 -18.205579 0.351606 -2.846981 1.846087 0.000000 0.000000 0.000000 -7.786270 18.520541 1.736706 -7.495286 -18.654427 -12.241605 44.340424 9.945335 -1.132596 -30.201006 -25.750853 17.008320 6.318007 7.414403 -12.663745 0.000000 0.000000 0.000000 -7.562749 28.883296 0.841397 15.462008 -9.089786 0.858080 4.729312 -5.476073 3.271458 0.204470 0.050256 -0.135060 0.000000 0.000000 0.000000 4.549346 -2.372651 3.434433 -13.519816 10.071768 9.675474 -11.339827 -12.949568 8.471753 0.000000 0.000000 0.000000 5.709601 -3.904687 3.298133 4.617882 -3.801442 -9.043482 -1.214096 -1.942999 -4.663833 -12.791529 -15.471917 -35.356201 79.629747 -52.181597 58.719198 0.000000 0.000000 0.000000 7.200791 -4.114363 3.237796 4.238788 -4.926043 22.448496 -10.031343 3.571221 7.164659 -4.785815 21.782599 34.446983 -150.044913 66.262336 151.989017 0.000000 0.000000 0.000000 
5.637227 79.317551 -10.240429 0.000000 0.000000 0.000000 -7.754355 22.559090 1.888783 -22.683632 -6.380478 12.163350 47.712430 0.574723 2.137907 -15.893572 2.451476 -18.989577 0.038672 -2.853870 1.639079 0.000000 0.000000 0.000000 -7.332122 20.372916 1.739042 -5.330199 -20.774760 -11.791236 41.604403 10.132684 -0.562552 -30.367530 -25.729872 16.200848 5.633706 7.446981 -12.831993 0.000000 0.000000 0.000000 -7.296865 30.796490 0.965870 15.499557 -9.616415 1.007073 4.418269 -5.664672 3.610085 0.236909 0.016091 -0.260487 0.000000 0.000000 0.000000 4.488750 -2.423919 3.981742 -12.746106 8.617530 9.956797 -9.146112 -18.506058 6.799003 0.000000 0.000000 0.000000 5.437293 -3.793705 3.656636 4.447759 -4.890106 -10.343987 -0.751320 -3.228360 -4.552813 -10.205740 -18.829686 -30.899223 74.356083 -50.809873 49.675365 0.000000 0.000000 0.000000 6.713670 -4.263088 3.511007 4.586147 -6.301826 20.190463 -10.644327 4.596147 8.138040 -15.601452 19.578517 30.929975 -148.421472 61.070374 148.979444 0.000000 0.000000 0.000000 
5.918353 80.358551 -9.998215 0.000000 0.000000 0.000000 -6.988100 24.187942 1.915311 -22.988207 -7.394172 11.251396 45.557662 0.489755 2.267465 -14.792902 1.841344 -19.793256 -0.300788 -2.875220 1.520374 0.000000 0.000000 0.000000 -6.611329 22.034013 1.697749 -3.339031 -22.656245 -11.523928 38.502343 10.266764 0.040346 -30.275944 -25.402414 14.972885 5.334716 7.362948 -12.650737 0.000000 0.000000 0.000000 -6.867680 32.538591 1.206979 15.722780 -10.149300 1.354846 3.940521 -5.284312 3.611311 0.208032 -0.028841 -0.216573 0.000000 0.000000 0.000000 4.472255 -1.993716 4.159925 -12.679480 6.966099 10.135871 -8.597491 -25.532191 4.916178 0.000000 0.000000 0.000000 4.785091 -3.228312 3.534750 4.087229 -5.732837 -12.055930 -0.101107 -4.938836 -4.295828 -9.200464 -19.933861 -28.588757 71.640837 -49.397198 43.158408 0.000000 0.000000 0.000000 5.984368 -3.916290 3.451187 4.560259 -7.036724 16.559684 -11.245586 5.319886 9.957974 -30.487745 17.490286 28.130513 -147.283303 55.751791 146.609669 0.000000 0.000000 0.000000 
6.241025 81.652176 -9.716763 0.000000 0.000000 0.000000 -6.157584 25.548661 2.086624 -22.774339 -7.699724 10.316851 42.553755 0.433522 2.267875 -13.887334 1.390035 -20.314630 -0.097500 -2.874466 1.451478 0.000000 0.000000 0.000000 -5.760003 23.213873 1.768501 -2.166274 -24.413627 -11.863146 35.374072 10.485110 0.694076 -29.556544 -24.769826 13.934511 5.131725 7.193139 -12.219516 0.000000 0.000000 0.000000 -6.200797 34.137453 1.605234 16.254013 -10.487434 1.760239 3.366105 -4.285658 3.327792 0.131585 -0.163165 -0.061094 0.000000 0.000000 0.000000 4.416328 -1.018587 3.958219 -13.768110 5.221907 10.061223 -10.771353 -33.037796 1.848448 0.000000 0.000000 0.000000 3.826933 -2.206962 3.027235 3.499937 -6.492848 -14.059062 0.539078 -5.931551 -3.757559 -10.648599 -19.401675 -28.970428 70.387572 -47.665684 38.097859 0.000000 0.000000 0.000000 5.170485 -3.005047 3.131897 4.228133 -6.512776 12.031568 -12.493978 5.462666 11.629150 -44.544072 17.674612 24.151052 -144.116664 52.978444 142.518782 0.000000 0.000000 0.000000 
6.573944 83.080589 -9.388428 0.000000 0.000000 0.000000 -5.277136 26.728716 2.518530 -22.286238 -7.459614 9.379345 39.005506 0.350304 2.126860 -12.846192 1.073257 -20.625421 0.968648 -2.833317 1.372291 0.000000 0.000000 0.000000 -4.871991 23.804557 2.104786 -2.123582 -26.231669 -12.963011 32.483478 10.885572 1.408209 -27.853100 -23.972017 13.659876 4.705518 6.997362 -11.748173 0.000000 0.000000 0.000000 -5.230250 35.677408 2.165223 17.143635 -10.505279 2.029956 2.828213 -2.745058 2.873999 0.124681 -0.383663 0.125049 0.000000 0.000000 0.000000 4.241478 0.416458 3.493843 -16.224283 3.247844 9.983516 -15.561741 -39.819532 -3.187982 0.000000 0.000000 0.000000 2.831180 -0.844986 2.327992 2.740537 -7.342398 -16.010170 1.074606 -5.727185 -3.058915 -14.887967 -17.898251 -31.694960 68.613034 -44.838187 32.637577 0.000000 0.000000 0.000000 4.467523 -1.581535 2.735272 3.868360 -4.315787 7.672346 -13.993073 4.198531 11.226217 -52.199348 21.392192 18.027156 -134.770069 54.780918 132.329943 0.000000 0.000000 0.000000 
